<?xml version="1.0" encoding="UTF-8" standalone="no"?>
<svg
   height="16"
   viewBox="0 0 16 16"
   width="16"
   version="1.1"
   id="svg4"
   sodipodi:docname="rakugo_text_label.svg"
   inkscape:version="1.1 (c4e8f9ed74, 2021-05-24)"
   xmlns:inkscape="http://www.inkscape.org/namespaces/inkscape"
   xmlns:sodipodi="http://sodipodi.sourceforge.net/DTD/sodipodi-0.dtd"
   xmlns="http://www.w3.org/2000/svg"
   xmlns:svg="http://www.w3.org/2000/svg"
   xmlns:rdf="http://www.w3.org/1999/02/22-rdf-syntax-ns#"
   xmlns:cc="http://creativecommons.org/ns#"
   xmlns:dc="http://purl.org/dc/elements/1.1/">
  <metadata
     id="metadata10">
    <rdf:RDF>
      <cc:Work
         rdf:about="">
        <dc:format>image/svg+xml</dc:format>
        <dc:type
           rdf:resource="http://purl.org/dc/dcmitype/StillImage" />
      </cc:Work>
    </rdf:RDF>
  </metadata>
  <defs
     id="defs8">
    <rect
       x="-10.926054"
       y="2.0475544"
       width="12.140338"
       height="12.73041"
       id="rect15711" />
    <rect
       x="-10.926054"
       y="2.0475544"
       width="12.140338"
       height="12.73041"
       id="rect109769" />
    <rect
       x="-10.926054"
       y="2.0475544"
       width="12.140338"
       height="12.73041"
       id="rect138652" />
  </defs>
  <sodipodi:namedview
     pagecolor="#282a36"
     bordercolor="#666666"
     borderopacity="1"
     objecttolerance="10"
     gridtolerance="10"
     guidetolerance="10"
     inkscape:pageopacity="0.31372549"
     inkscape:pageshadow="2"
     inkscape:window-width="1920"
     inkscape:window-height="1010"
     id="namedview6"
     showgrid="false"
     inkscape:zoom="37.520854"
     inkscape:cx="3.1848955"
     inkscape:cy="9.141583"
     inkscape:window-x="0"
     inkscape:window-y="40"
     inkscape:window-maximized="1"
     inkscape:current-layer="svg4"
     inkscape:document-rotation="0"
     inkscape:pagecheckerboard="true" />
  <path
     d="M 12.318283,2.3244605 9.7124786,4.7825509 H 11.449682 V 11.337459 H 9.7124786 l 2.6058044,2.45809 2.605804,-2.45809 H 13.186885 V 4.7825509 h 1.737202 z"
     fill="#a5efac"
     id="path2"
     style="fill:#a5efac;fill-opacity:1;stroke-width:0.843623"
     sodipodi:nodetypes="ccccccccccc" />
  <g
     aria-label="Ra
ku
"
     transform="matrix(1.4203757,0,0,1.5802674,15.757068,-0.85821417)"
     id="text15709"
     style="font-size:4.4678px;line-height:0.85;white-space:pre;shape-inside:url(#rect15711);fill:#a5efac">
    <path
       d="m -9.3223471,3.2934087 q 0.2639667,0 0.3774069,-0.098169 0.1156218,-0.098169 0.1156218,-0.3228684 0,-0.2225174 -0.1156218,-0.3185052 -0.1134402,-0.095988 -0.3774069,-0.095988 h -0.35341 V 3.293409 Z m -0.35341,0.5802905 V 5.106271 H -10.515651 V 1.8492273 h 1.2827471 q 0.6435552,0 0.9424266,0.2159727 0.301053,0.2159728 0.301053,0.682823 0,0.3228684 -0.1570711,0.5301149 -0.1548896,0.2072466 -0.4690318,0.3054161 0.1723419,0.039268 0.3075976,0.1788865 0.1374372,0.1374372 0.277056,0.4188563 L -7.5749311,5.106271 H -8.4693638 L -8.8664046,4.2969185 Q -8.9863895,4.0525857 -9.1107374,3.9631425 -9.2329039,3.8736992 -9.4379689,3.8736992 Z"
       style="font-weight:bold;-inkscape-font-specification:'sans-serif Bold'"
       id="path166312" />
    <path
       d="m -6.0151279,4.0067733 q -0.2443329,0 -0.3686808,0.082899 -0.1221664,0.082899 -0.1221664,0.2443328 0,0.1483449 0.098169,0.2334251 0.100351,0.082899 0.277056,0.082899 0.2203358,0 0.3708623,-0.1570711 0.1505265,-0.1592526 0.1505265,-0.3970408 v -0.089443 z m 1.193304,-0.2945083 v 1.394006 h -0.787537 V 4.7441349 q -0.1570711,0.2225174 -0.35341,0.3250499 -0.1963389,0.100351 -0.4777579,0.100351 -0.3795885,0 -0.6173767,-0.2203359 -0.2356067,-0.2225174 -0.2356067,-0.5759274 0,-0.4297639 0.2945084,-0.6304659 0.2966898,-0.2007019 0.9293373,-0.2007019 h 0.4603056 v -0.061083 q 0,-0.1854311 -0.1461634,-0.2705113 -0.1461634,-0.087262 -0.4559425,-0.087262 -0.2508775,0 -0.4668502,0.050175 -0.2159728,0.050175 -0.4014039,0.1505264 V 2.7283891 q 0.2508774,-0.061083 0.5039364,-0.091625 0.253059,-0.032723 0.506118,-0.032723 0.6610075,0 0.9533343,0.2617852 0.2945083,0.2596036 0.2945083,0.8464387 z"
       style="font-weight:bold;-inkscape-font-specification:'sans-serif Bold'"
       id="path166314" />
    <path
       d="m -10.550556,5.5094204 h 0.7809926 v 1.8477669 l 0.8987957,-0.8966142 h 0.9075219 l -1.193304,1.1213131 1.2871103,1.3220151 H -8.8162291 L -9.7695634,7.8851207 v 1.0187806 h -0.7809926 z"
       style="font-weight:bold;-inkscape-font-specification:'sans-serif Bold'"
       id="path166316" />
    <path
       d="M -7.6054729,7.9527486 V 6.4605731 h 0.7853555 v 0.2443328 q 0,0.1985205 -0.00218,0.4995734 -0.00218,0.2988714 -0.00218,0.3992224 0,0.2945083 0.015271,0.4254009 0.015271,0.128711 0.052357,0.1876127 0.047994,0.076354 0.1243479,0.1178033 0.078536,0.041449 0.1788866,0.041449 0.2443328,0 0.3839515,-0.1876127 0.1396188,-0.1876127 0.1396188,-0.5213888 v -1.206393 h 0.7809924 v 2.4433282 h -0.7809924 v -0.35341 q -0.176705,0.2137913 -0.3752254,0.3163238 -0.1963389,0.100351 -0.4341271,0.100351 -0.4232193,0 -0.6457367,-0.2596037 -0.2203359,-0.2596036 -0.2203359,-0.7548138 z"
       style="font-weight:bold;-inkscape-font-specification:'sans-serif Bold'"
       id="path166318" />
  </g>
  <g
     aria-label="Ra
ku
go"
     transform="matrix(1.1449636,0,0,1.1046005,4.4410306,-0.19559264)"
     id="text109767"
     style="font-size:4.4678px;line-height:0.85;white-space:pre;shape-inside:url(#rect109769);fill:#a5efac">
    <path
       d="m -9.3223471,3.2934087 q 0.2639667,0 0.3774069,-0.098169 0.1156218,-0.098169 0.1156218,-0.3228684 0,-0.2225174 -0.1156218,-0.3185052 -0.1134402,-0.095988 -0.3774069,-0.095988 h -0.35341 V 3.293409 Z m -0.35341,0.5802905 V 5.106271 H -10.515651 V 1.8492273 h 1.2827471 q 0.6435552,0 0.9424266,0.2159727 0.301053,0.2159728 0.301053,0.682823 0,0.3228684 -0.1570711,0.5301149 -0.1548896,0.2072466 -0.4690318,0.3054161 0.1723419,0.039268 0.3075976,0.1788865 0.1374372,0.1374372 0.277056,0.4188563 L -7.5749311,5.106271 H -8.4693638 L -8.8664046,4.2969185 Q -8.9863895,4.0525857 -9.1107374,3.9631425 -9.2329039,3.8736992 -9.4379689,3.8736992 Z"
       style="font-weight:bold;-inkscape-font-specification:'sans-serif Bold'"
       id="path166281" />
    <path
       d="m -6.0151279,4.0067733 q -0.2443329,0 -0.3686808,0.082899 -0.1221664,0.082899 -0.1221664,0.2443328 0,0.1483449 0.098169,0.2334251 0.100351,0.082899 0.277056,0.082899 0.2203358,0 0.3708623,-0.1570711 0.1505265,-0.1592526 0.1505265,-0.3970408 v -0.089443 z m 1.193304,-0.2945083 v 1.394006 h -0.787537 V 4.7441349 q -0.1570711,0.2225174 -0.35341,0.3250499 -0.1963389,0.100351 -0.4777579,0.100351 -0.3795885,0 -0.6173767,-0.2203359 -0.2356067,-0.2225174 -0.2356067,-0.5759274 0,-0.4297639 0.2945084,-0.6304659 0.2966898,-0.2007019 0.9293373,-0.2007019 h 0.4603056 v -0.061083 q 0,-0.1854311 -0.1461634,-0.2705113 -0.1461634,-0.087262 -0.4559425,-0.087262 -0.2508775,0 -0.4668502,0.050175 -0.2159728,0.050175 -0.4014039,0.1505264 V 2.7283891 q 0.2508774,-0.061083 0.5039364,-0.091625 0.253059,-0.032723 0.506118,-0.032723 0.6610075,0 0.9533343,0.2617852 0.2945083,0.2596036 0.2945083,0.8464387 z"
       style="font-weight:bold;-inkscape-font-specification:'sans-serif Bold'"
       id="path166283" />
    <path
       d="m -10.550556,5.5094204 h 0.7809926 v 1.8477669 l 0.8987957,-0.8966142 h 0.9075219 l -1.193304,1.1213131 1.2871103,1.3220151 H -8.8162291 L -9.7695634,7.8851207 v 1.0187806 h -0.7809926 z"
       style="font-weight:bold;-inkscape-font-specification:'sans-serif Bold'"
       id="path166285" />
    <path
       d="M -7.6054729,7.9527486 V 6.4605731 h 0.7853555 v 0.2443328 q 0,0.1985205 -0.00218,0.4995734 -0.00218,0.2988714 -0.00218,0.3992224 0,0.2945083 0.015271,0.4254009 0.015271,0.128711 0.052357,0.1876127 0.047994,0.076354 0.1243479,0.1178033 0.078536,0.041449 0.1788866,0.041449 0.2443328,0 0.3839515,-0.1876127 0.1396188,-0.1876127 0.1396188,-0.5213888 v -1.206393 h 0.7809924 v 2.4433282 h -0.7809924 v -0.35341 q -0.176705,0.2137913 -0.3752254,0.3163238 -0.1963389,0.100351 -0.4341271,0.100351 -0.4232193,0 -0.6457367,-0.2596037 -0.2203359,-0.2596036 -0.2203359,-0.7548138 z"
       style="font-weight:bold;-inkscape-font-specification:'sans-serif Bold'"
       id="path166287" />
    <path
       d="m -8.8882201,12.287038 q -0.1614341,0.213792 -0.3555915,0.314143 -0.1941573,0.100351 -0.4493978,0.100351 -0.4472166,0 -0.7395436,-0.351229 -0.292326,-0.35341 -0.292326,-0.898796 0,-0.547567 0.292326,-0.896614 0.292327,-0.351228 0.7395436,-0.351228 0.2552405,0 0.4493978,0.100351 0.1941574,0.100351 0.3555915,0.316324 v -0.362137 h 0.7853555 v 2.196814 q 0,0.589017 -0.3730438,0.898796 -0.3708623,0.311961 -1.0776823,0.311961 -0.229062,0 -0.4428532,-0.03491 -0.2137911,-0.03491 -0.4297641,-0.106896 v -0.60865 q 0.205065,0.117803 0.401404,0.174523 0.1963389,0.0589 0.3948593,0.0589 0.3839516,0 0.5628381,-0.167979 0.1788865,-0.167979 0.1788865,-0.525752 z m -0.5148441,-1.520535 q -0.2421513,0 -0.377407,0.178886 -0.1352556,0.178887 -0.1352556,0.506118 0,0.335958 0.1308926,0.510482 0.1308925,0.172341 0.38177,0.172341 0.2443328,0 0.3795885,-0.178886 0.1352556,-0.178887 0.1352556,-0.503937 0,-0.327231 -0.1352556,-0.506118 -0.1352557,-0.178886 -0.3795885,-0.178886 z"
       style="font-weight:bold;-inkscape-font-specification:'sans-serif Bold'"
       id="path166289" />
    <path
       d="m -6.1896514,10.757777 q -0.2596036,0 -0.3970408,0.187612 -0.1352557,0.185432 -0.1352557,0.53666 0,0.351229 0.1352557,0.538841 0.1374372,0.185431 0.3970408,0.185431 0.2552406,0 0.3904962,-0.185431 0.1352557,-0.187612 0.1352557,-0.538841 0,-0.351228 -0.1352557,-0.53666 -0.1352556,-0.187612 -0.3904962,-0.187612 z m 0,-0.558475 q 0.630466,0 0.983876,0.34032 0.3555915,0.340321 0.3555915,0.942427 0,0.602106 -0.3555915,0.942427 -0.35341,0.34032 -0.983876,0.34032 -0.6326474,0 -0.9904205,-0.34032 -0.3555915,-0.340321 -0.3555915,-0.942427 0,-0.602106 0.3555915,-0.942427 0.3577731,-0.34032 0.9904205,-0.34032 z"
       style="font-weight:bold;-inkscape-font-specification:'sans-serif Bold'"
       id="path166291" />
  </g>
  <path
     d="m 17.819905,2.2766405 v 1.638727 h 6.948811 v -1.638727 z m 10.423216,0 -2.605804,2.4580904 h 1.737203 v 6.5549081 h -1.737203 l 2.605804,2.45809 2.605804,-2.45809 H 29.111723 V 4.7347309 h 1.737202 z M 17.819905,5.5540943 v 1.6387269 h 1.737203 V 5.5540943 Z m 3.474405,0 v 1.6387269 h 3.474406 V 5.5540943 Z m -3.474405,3.2774538 v 1.6387279 h 6.948811 V 8.8315481 Z m 0,3.2774539 v 1.638727 h 3.474405 v -1.638727 z m 5.211608,0 v 1.638727 h 1.737203 v -1.638727 z"
     fill="#a5efac"
     id="path123255"
     style="stroke-width:0.843623" />
  <text
     xml:space="preserve"
     id="text138650"
     style="font-size:4.4678px;line-height:0.85;font-family:sans-serif;white-space:pre;shape-inside:url(#rect138652);fill:#a5efac;fill-opacity:1"
     transform="matrix(1.1449636,0,0,1.1046005,-3.8010031,-0.73577699)"><tspan
       x="-10.925781"
       y="5.106271"
       id="tspan166389">Ra
</tspan><tspan
       x="-10.925781"
       y="8.9039013"
       id="tspan166391">ku
</tspan><tspan
       x="-10.925781"
       y="12.701532"
       id="tspan166393">go</tspan></text>
</svg>
