<?xml version="1.0" encoding="UTF-8" standalone="no"?>
<svg
   width="16"
   height="16"
   version="1.1"
   id="svg3"
   sodipodi:docname="Script.svg"
   inkscape:version="1.3.2 (091e20ef0f, 2023-11-25, custom)"
   xmlns:inkscape="http://www.inkscape.org/namespaces/inkscape"
   xmlns:sodipodi="http://sodipodi.sourceforge.net/DTD/sodipodi-0.dtd"
   xmlns="http://www.w3.org/2000/svg"
   xmlns:svg="http://www.w3.org/2000/svg">
  <defs
     id="defs3" />
  <sodipodi:namedview
     id="namedview3"
     pagecolor="#505050"
     bordercolor="#ffffff"
     borderopacity="1"
     inkscape:showpageshadow="0"
     inkscape:pageopacity="0"
     inkscape:pagecheckerboard="1"
     inkscape:deskcolor="#d1d1d1"
     inkscape:zoom="25.28125"
     inkscape:cx="7.4758962"
     inkscape:cy="7.0605686"
     inkscape:window-width="1920"
     inkscape:window-height="1008"
     inkscape:window-x="0"
     inkscape:window-y="40"
     inkscape:window-maximized="1"
     inkscape:current-layer="svg3" />
  <path
     fill="#e0e0e0"
     d="M 6,1 C 4.8954305,1 4,1.8954305 4,3 v 7 H 1 v 3 c 0,1.104569 0.8954305,2 2,2 h 7 c 0.711296,-0.0032 1.367356,-0.383989 1.723,-1 L 12,5 h 3 V 3 C 15,1.8954305 14.104569,1 13,1 Z"
     id="path1"
     sodipodi:nodetypes="ssccssccccsss" />
  <path
     fill-opacity=".2"
     d="M6 1a2 2 0 0 0-2 2v7H1v3a2 2 0 1 0 4 0V3a1 1 0 0 1 2 0v3h5V5H8V3a2 2 0 0 0-2-2zM2 11h2v2a1 1 0 0 1-2 0z"
     id="path2" />
  <path
     d="m 10.167895,14.672198 c 0.227934,0 0.377891,-0.143958 0.377891,-0.338902 0,-0.185946 -0.131962,-0.323907 -0.353898,-0.323907 -0.05998,0 -0.113967,0.012 -0.155955,0.03299 C 9.658042,13.667488 9.3431328,13.298594 9.1121994,12.96569 l 0.023993,-0.07798 c 0.7737768,-0.185946 1.5085645,-0.680804 1.5085645,-1.475575 0,-0.743785 -0.6718059,-1.268634 -1.6825144,-1.268634 -0.2879169,0 -0.6298183,0.03299 -0.8817457,0.09897 -0.2189368,0.05398 -0.3598962,0.170951 -0.3209074,0.359896 0.03599,0.176949 0.1919446,0.224935 0.3688936,0.20694 -0.155955,1.010709 -0.3299049,2.474287 -0.443872,3.455004 -0.029991,0.263924 0.065981,0.428876 0.266923,0.428876 0.1889455,0 0.2759204,-0.128963 0.2999135,-0.31191 0.038989,-0.410881 0.2999135,-2.708219 0.4408729,-3.682938 0.1139671,-0.012 0.2249351,-0.01799 0.3359031,-0.01799 0.6178218,0.003 1.0526964,0.30891 1.0526964,0.776776 0,0.563837 -0.6328175,0.893742 -1.2986255,1.007709 -0.3089109,0.04499 -0.3598962,0.356897 -0.200942,0.632817 0.2099394,0.368894 1.0317024,1.574546 1.5865425,1.574546 z m 3.706936,-0.03299 c 0.185946,0 0.323906,-0.146958 0.323906,-0.335903 0,-0.185947 -0.140959,-0.332904 -0.338902,-0.332904 -0.05099,0 -0.10497,0.009 -0.149957,0.02099 C 13.287,13.622501 12.738159,13.025673 12.408254,12.608793 l 0.02099,-0.08997 c 0.371892,-0.314909 1.42159,-1.343612 1.754494,-1.730501 0.116966,-0.134961 0.161953,-0.30891 0.02699,-0.428876 -0.128963,-0.113967 -0.263924,-0.09597 -0.431876,0.08098 -0.290916,0.299913 -1.094684,1.118677 -1.355609,1.379602 -0.116966,0.116966 -0.227934,0.224935 -0.317908,0.323906 0.06598,-0.584831 0.119965,-1.127674 0.143959,-1.487571 0.015,-0.347899 -0.116967,-0.485859 -0.31491,-0.485859 -0.227934,0 -0.341901,0.167951 -0.341901,0.395885 0,0.14096 0.03599,0.248929 0.101971,0.308911 -0.08997,1.034702 -0.293916,2.606249 -0.428877,3.505989 -0.02999,0.182947 0.101971,0.314909 0.269922,0.314909 0.149957,0 0.248929,-0.104969 0.27892,-0.290916 0.05998,-0.395886 0.128963,-0.920734 0.197943,-1.463578 0.07798,0.122965 0.185946,0.254927 0.305912,0.398885 0.395886,0.473864 1.151668,1.298626 1.556551,1.298626 z"
     id="text3"
     style="font-size:5.99827px;line-height:1.25;font-family:'Monaspace Radon';-inkscape-font-specification:'Monaspace Radon';fill:#5fb2ff;stroke-width:0.149957"
     transform="scale(1.00944,0.99064829)"
     aria-label="RK" />
</svg>
